<svg xmlns="http://www.w3.org/2000/svg" xmlns:xlink="http://www.w3.org/1999/xlink" width="80" height="80" viewBox="0 0 80 80">
  <defs>
    <clipPath id="clip-thumbs">
      <rect width="80" height="80"/>
    </clipPath>
  </defs>
  <g id="thumbs" clip-path="url(#clip-thumbs)">
    <rect width="80" height="80" fill="#fff"/>
    <g id="money-bag" transform="translate(6.133 14.374)">
      <g id="Group_6" data-name="Group 6" transform="translate(20.867 0)">
        <g id="Group_4" data-name="Group 4">
          <g id="Group_3" data-name="Group 3">
            <g id="Group_1" data-name="Group 1" transform="translate(0 0)">
              <path id="Path_2" data-name="Path 2" d="M147.241,7.167h0l-.352-.35a1.279,1.279,0,0,1-.048-1.765h0l0-.005c.515-.582,1.037-1.2,1.542-1.833A2.024,2.024,0,0,0,147.313,0h-7.2a2.015,2.015,0,0,0-1.582,3.264,58.4,58.4,0,0,0,6.152,6.488s1.122-.991,2.617-2.519Z" transform="translate(-131.542)" fill="#1f850a"/>
              <path id="Path_3" data-name="Path 3" d="M44.74,117.687c0-3.826-4.129-8.935-7.77-12.7h0c-1-1.027.133.134-.756-.764a1.276,1.276,0,0,1-.369-1.048H30.45c-3.893,3.751-9.583,10-9.583,14.481q0,.115,0,.229a8.363,8.363,0,0,0,8.39,8.148h8.1A8.387,8.387,0,0,0,44.74,117.687Z" transform="translate(-20.867 -97.41)" fill="#1f850a"/>
            </g>
            <g id="Group_2" data-name="Group 2" transform="translate(13.776)">
              <path id="Path_4" data-name="Path 4" d="M269.608,3.264c-.774.972-1.586,1.9-2.356,2.73.516.5,1.06,1.044,1.615,1.617a54.187,54.187,0,0,0,3.908-4.348A2.015,2.015,0,0,0,271.193,0h-3.168a2.015,2.015,0,0,1,1.582,3.264Z" transform="translate(-267.252 0)" fill="#2a701d"/>
              <path id="Path_5" data-name="Path 5" d="M270.186,103.179h-2.727l-.207.226c3.883,3.772,9.35,9.862,9.35,14.255q0,.115,0,.229a8.363,8.363,0,0,1-8.39,8.148h3.168a8.363,8.363,0,0,0,8.39-8.148q0-.114,0-.229C279.769,113.179,274.08,106.93,270.186,103.179Z" transform="translate(-267.252 -97.41)" fill="#2a701d"/>
            </g>
            <path id="Path_6" data-name="Path 6" d="M162.24,93.178h0l-.352-.35a1.278,1.278,0,0,1-.082-1.723h-6.769a1.053,1.053,0,1,0,0,2.106h7.235Z" transform="translate(-146.541 -86.011)" fill="#1e5014"/>
          </g>
        </g>
        <g id="Group_5" data-name="Group 5" transform="translate(6.341 11.285)">
          <circle id="Ellipse_1" data-name="Ellipse 1" cx="6.805" cy="6.805" r="6.805" fill="#2a701d"/>
          <path id="Path_7" data-name="Path 7" d="M228.889,201.834a6.82,6.82,0,0,0-1.606.191,6.807,6.807,0,0,1,0,13.228,6.806,6.806,0,1,0,1.606-13.419Z" transform="translate(-222.083 -201.834)" fill="#2a701d"/>
          <path id="Path_8" data-name="Path 8" d="M217.674,240.041c-.172-.061-.331-.119-.478-.176v-2.458a1.586,1.586,0,0,1,.711.322.432.432,0,0,0,.583-.637,2.493,2.493,0,0,0-1.294-.559V236a.432.432,0,0,0-.864,0v.565c-.087.018-.177.04-.268.067a1.951,1.951,0,0,0-1.336,1.531,1.711,1.711,0,0,0,.557,1.686,4.789,4.789,0,0,0,1.046.594v3.071a2.072,2.072,0,0,1-1.176-.419.432.432,0,0,0-.473.723,2.925,2.925,0,0,0,1.649.561v.594a.432.432,0,0,0,.864,0v-.626a2.357,2.357,0,0,0,1.9-1.944A2.066,2.066,0,0,0,217.674,240.041Zm-1.856-.869a.858.858,0,0,1-.242-.846,1.1,1.1,0,0,1,.736-.864l.019-.005v2.034A3.184,3.184,0,0,1,215.818,239.172Zm2.427,3.09a1.51,1.51,0,0,1-1.049,1.2v-2.674l.19.068A1.213,1.213,0,0,1,218.245,242.262Z" transform="translate(-210.002 -233.684)" fill="#fff"/>
        </g>
      </g>
      <path id="Path_9" data-name="Path 9" d="M280.535,92.159a1.053,1.053,0,0,0-1.053-1.053h-3.207a1.273,1.273,0,0,0,.047,1.757l.351.349h2.809A1.053,1.053,0,0,0,280.535,92.159Z" transform="translate(-240.818 -86.012)" fill="#1f5315"/>
    </g>
    <text id="Quick_Lend" data-name="Quick Lend" transform="translate(5 62)" fill="#1f850a" font-size="14" font-family="Roboto-Bold, Roboto" font-weight="700"><tspan x="0" y="0">Quick Lend</tspan></text>
  </g>
</svg>
