<svg xmlns="http://www.w3.org/2000/svg" xmlns:xlink="http://www.w3.org/1999/xlink" width="600" height="600" viewBox="0 0 600 600">
  <defs>
    <clipPath id="clip-Custom_Size_1">
      <rect width="600" height="600"/>
    </clipPath>
  </defs>
  <g id="Custom_Size_1" data-name="Custom Size – 1" clip-path="url(#clip-Custom_Size_1)">
    <g id="money-exchange" transform="translate(43.587 44)">
      <path id="Path_1" data-name="Path 1" d="M457.428,221.831A169.392,169.392,0,0,0,346.2,171.3c0-.269.01-.536.01-.8,0-94.014-76.486-170.5-170.5-170.5A170.7,170.7,0,0,0,5.422,162.027a7.5,7.5,0,0,0,14.981.737A155.7,155.7,0,0,1,175.713,15c85.743,0,155.5,69.757,155.5,155.5S261.455,326,175.713,326a155.756,155.756,0,0,1-153.7-131.845,7.5,7.5,0,1,0-14.827,2.272A170.761,170.761,0,0,0,165.6,340.688c0,.27-.01.543-.01.813,0,94.014,76.486,170.5,170.5,170.5s170.5-76.486,170.5-170.5a169.452,169.452,0,0,0-49.16-119.67ZM336.088,497c-85.743,0-155.5-69.757-155.5-155.5,0-.191.006-.384.007-.576a170.4,170.4,0,0,0,27.481-3.02A128.051,128.051,0,0,0,408.419,447.116a7.5,7.5,0,1,0-8.459-12.387,113.019,113.019,0,0,1-176.7-100.484A171.274,171.274,0,0,0,336.068,228.451a113.064,113.064,0,0,1,86.648,185.7A7.5,7.5,0,0,0,434.2,423.8a128.069,128.069,0,0,0-93.489-210.273,169.539,169.539,0,0,0,4.767-27.242A155.7,155.7,0,0,1,491.59,341.5c0,85.743-69.759,155.5-155.5,155.5Z" fill="#1f850a"/>
      <path id="Path_2" data-name="Path 2" d="M258.456,82.59a7.5,7.5,0,0,0-.97-10.562,128.059,128.059,0,1,0,23.469,25.6,7.5,7.5,0,1,0-12.32,8.556,113.251,113.251,0,1,1-20.74-22.62,7.5,7.5,0,0,0,10.561-.97Z" fill="#1f850a"/>
      <path id="Path_3" data-name="Path 3" d="M373.731,389.724l-54.331-.481c10.409-14.081,12.782-22.365,11.025-38.079l-.025-.212h17.04a7.5,7.5,0,0,0,0-15H326.852c-3.4-4.938-9.782-16.151-9.742-25.525,0-.01,0-.02,0-.03s0-.019,0-.029c-.021-6.007,2.7-10.6,8.1-13.645,8.044-4.543,20.563-4.6,27.909-.138,5.818,3.537,10.061,8.36,11.349,12.9a7.5,7.5,0,0,0,14.43-4.094c-2.329-8.209-8.885-16.091-17.987-21.625-11.878-7.223-30.4-7.268-43.077-.107-10.147,5.729-15.724,15.189-15.721,26.643,0,.02,0,.039,0,.058s0,.025,0,.038,0,.014,0,.021,0,.015,0,.023c-.018,9.294,3.733,18.674,7.314,25.508H298.51a7.5,7.5,0,0,0,0,15H315.3l.222,1.912c1.278,11.43.413,15.921-8.477,27.857l-8.922,11.218a7.5,7.5,0,0,0,5.8,12.168l69.672.617h.068a7.5,7.5,0,0,0,.065-15Z" fill="#1f850a"/>
      <path id="Path_4" data-name="Path 4" d="M175.526,443.9,125.9,408.79A12.518,12.518,0,0,0,106.133,419v10.479H96.838c-14.586,0-26.451-10.7-26.451-23.841V371.376a25.068,25.068,0,0,0-50.136,0V405.64c0,40.791,34.357,73.977,76.587,73.977h9.295v9.616a12.516,12.516,0,0,0,19.752,10.219l49.634-35.111a12.513,12.513,0,0,0,.007-20.443Zm-54.393,40.541v-7.3a12.533,12.533,0,0,0-12.52-12.519H96.838c-33.959,0-61.587-26.457-61.587-58.977V371.376a10.068,10.068,0,0,1,20.136,0V405.64c0,21.417,18.595,38.841,41.451,38.841h11.775a12.534,12.534,0,0,0,12.52-12.519V423.8L164,454.117Z" fill="#1f850a"/>
      <path id="Path_5" data-name="Path 5" d="M341.2,75.39l49.63,35.108a12.517,12.517,0,0,0,19.763-10.21V89.808h9.3c14.586,0,26.451,10.695,26.451,23.841v34.263a25.068,25.068,0,1,0,50.136,0V113.649c0-40.791-34.357-73.977-76.587-73.977h-9.3V30.056a12.524,12.524,0,0,0-19.752-10.219L341.2,54.948A12.512,12.512,0,0,0,341.2,75.39Zm54.393-40.54v7.3a12.533,12.533,0,0,0,12.52,12.519h11.775c33.959,0,61.587,26.457,61.587,58.977v34.263a10.068,10.068,0,0,1-20.136,0V113.649c0-21.417-18.6-38.841-41.451-38.841H408.111a12.534,12.534,0,0,0-12.52,12.52V95.5L352.726,65.173Z" fill="#1f850a"/>
      <path id="Path_6" data-name="Path 6" d="M175.113,251.128a7.5,7.5,0,0,0,7.5-7.5v-9.822c18.091-3.34,28.656-18.159,30.983-32,2.962-17.621-6.259-32.942-23.492-39.034-10.93-3.863-23.055-8.559-30.114-14.1-3.377-2.649-4.822-7.762-3.77-13.344.986-5.233,4.571-11.587,11.674-13.727,15.19-4.574,25.023,3.825,25.536,4.275a7.5,7.5,0,0,0,10.122-11.07,41.086,41.086,0,0,0-20.939-9.175V97.37a7.5,7.5,0,1,0-15,0v8.843c-1.321.278-2.669.615-4.046,1.03-11.325,3.412-19.789,13.111-22.088,25.311-2.093,11.106,1.453,21.807,9.253,27.925,7.066,5.542,17.024,10.3,34.372,16.436,15.3,5.407,14.353,18.516,13.7,22.4-1.624,9.658-9.746,20.1-23.741,20.188-11.538.087-16.081-.439-25.911-6.87a7.5,7.5,0,0,0-8.212,12.552c10.383,6.792,17.428,8.728,26.673,9.19v9.247a7.5,7.5,0,0,0,7.5,7.5Z" fill="#1f850a"/>
    </g>
  </g>
</svg>
