<svg xmlns="http://www.w3.org/2000/svg" xmlns:xlink="http://www.w3.org/1999/xlink" width="500" height="500" viewBox="0 0 500 500">
  <defs>
    <clipPath id="clip-Custom_Size_1">
      <rect width="500" height="500"/>
    </clipPath>
  </defs>
  <g id="Custom_Size_1" data-name="Custom Size – 1" clip-path="url(#clip-Custom_Size_1)">
    <g id="icon" transform="translate(-11 -14.097)">
      <path id="Path_1" data-name="Path 1" d="M400,56v5.084L277.844,22.51A51.6,51.6,0,0,0,234.5,28.2L183.949,60.366A51.422,51.422,0,0,0,160.634,96H48a8,8,0,0,0-8,8V280a8,8,0,0,0,8,8H384a8,8,0,0,0,8-8V194.562c1.077-.811,2.134-1.659,3.16-2.562H400v16a8,8,0,0,0,8,8h88V200H416V64h80V48H408a8,8,0,0,0-8,8ZM273.938,232a42.259,42.259,0,0,0,9.444-1.074A71.757,71.757,0,0,0,264.455,272H224V112h6.058A25.941,25.941,0,0,1,248.4,156.284l-4.118,4.117A41.941,41.941,0,0,0,273.938,232ZM328,208.455a71.429,71.429,0,0,0-17.284,4.139L328,195.312Zm0,16.126V272H280.581A56.113,56.113,0,0,1,328,224.581ZM208,272H176V112h32Zm-48,0H119.545A72.122,72.122,0,0,0,56,208.455v-32.91A72.122,72.122,0,0,0,119.545,112H160ZM103.419,112A56.114,56.114,0,0,1,56,159.419V112ZM56,224.581A56.113,56.113,0,0,1,103.419,272H56ZM376,272H344V202.777a53.618,53.618,0,0,0,32,0Zm16-96a8,8,0,0,0-5.656,2.343,37.3,37.3,0,0,1-52.687,0,8,8,0,0,0-11.314,0L292.28,208.4a25.941,25.941,0,0,1-36.686-36.687l4.118-4.117h0A41.941,41.941,0,0,0,230.058,96H176.891a35.537,35.537,0,0,1,15.648-22.136l50.554-32.171a35.633,35.633,0,0,1,29.933-3.926L400,77.863V176Z" fill="#1f850a"/>
      <path id="Path_2" data-name="Path 2" d="M64,488v-8H88a8,8,0,0,0,8-8v-8.454l.756.54A171.338,171.338,0,0,0,317.5,445.817l60.16-60.16a36.28,36.28,0,0,0-46.2-55.556,30.552,30.552,0,0,0-51-6.936,31.19,31.19,0,0,0-46.286,19.193L225.754,376h-46.44l-5.657-5.657A64.6,64.6,0,0,0,96,359.907V352a8,8,0,0,0-8-8H64a8,8,0,0,0-8-8H16v16H48V480H16v16H56a8,8,0,0,0,8-8ZM300.207,328.828A14.561,14.561,0,0,1,318.289,342.4L262.466,398.22a31.9,31.9,0,0,0-3.977-8.153l32.762-54.6A14.472,14.472,0,0,1,300.207,328.828ZM249.686,346.24a15.181,15.181,0,0,1,22.178-9.562l-25.61,42.683a31.779,31.779,0,0,0-4.4-1.8ZM128,367.431a48.25,48.25,0,0,1,34.343,14.227l8,8A8,8,0,0,0,176,392h56a16,16,0,0,1,0,32H160v16h72a32.027,32.027,0,0,0,28.194-16.881l77.462-77.462a20.284,20.284,0,1,1,28.687,28.686l-60.16,60.16a155.338,155.338,0,0,1-200.127,16.564L96,443.883v-64.4a48.2,48.2,0,0,1,32-12.047ZM80,360V464H64V360Z" fill="#1f850a"/>
    </g>
  </g>
</svg>
